<svg width="64" height="64" viewBox="0 0 64 64" fill="none" xmlns="http://www.w3.org/2000/svg">
<g clip-path="url(#clip0_103_954)">
<path opacity="0.2" d="M60.8 32C60.8 39.6382 57.7657 46.9636 52.3647 52.3646C46.9636 57.7657 39.6382 60.7999 32 60.7999V44C35.1826 44 38.2348 42.7357 40.4853 40.4852C42.7357 38.2348 44 35.1825 44 32C44 28.8174 42.7357 25.7651 40.4853 23.5147C38.2348 21.2642 35.1826 20 32 20V3.19995C39.6382 3.19995 46.9636 6.23423 52.3647 11.6353C57.7657 17.0363 60.8 24.3617 60.8 32Z" fill="#121212"/>
<path d="M31.9995 0.800049C31.3629 0.800049 30.7525 1.05291 30.3024 1.50299C29.8523 1.95308 29.5995 2.56353 29.5995 3.20005V20C29.5995 20.6366 29.8523 21.247 30.3024 21.6971C30.7525 22.1472 31.3629 22.4 31.9995 22.4C34.1127 22.4005 36.1667 23.0982 37.8429 24.385C39.5192 25.6718 40.724 27.4757 41.2706 29.517C41.8172 31.5582 41.675 33.7228 40.866 35.6751C40.0571 37.6273 38.6266 39.258 36.7964 40.3144C34.9662 41.3708 32.8385 41.7938 30.7435 41.5178C28.6484 41.2418 26.7029 40.2822 25.2087 38.7879C23.7145 37.2936 22.7552 35.348 22.4794 33.2528C22.2036 31.1577 22.6269 29.0301 23.6835 27.2001C23.8411 26.927 23.9434 26.6257 23.9846 26.3131C24.0257 26.0006 24.0049 25.683 23.9233 25.3785C23.8416 25.074 23.7008 24.7885 23.5088 24.5385C23.3169 24.2884 23.0775 24.0786 22.8045 23.921L8.25446 15.521C7.98146 15.3634 7.68007 15.2611 7.36752 15.2199C7.05496 15.1788 6.73736 15.1996 6.43287 15.2813C6.12837 15.3629 5.84293 15.5037 5.59286 15.6957C5.3428 15.8876 5.133 16.127 4.97546 16.4C1.54145 22.3479 0.165963 29.2627 1.06231 36.072C1.95866 42.8812 5.07675 49.2045 9.93301 54.0611C14.7893 58.9177 21.1123 62.0361 27.9215 62.9329C34.7308 63.8297 41.6456 62.4547 47.5937 59.021C53.5418 55.5874 58.1908 50.2871 60.8195 43.9421C63.4483 37.5971 63.9101 30.562 62.1331 23.9278C60.3562 17.2936 56.4399 11.4312 50.9916 7.24956C45.5433 3.06796 38.8675 0.800931 31.9995 0.800049ZM8.02646 20.93L18.4995 26.9781C17.9035 28.5853 17.5987 30.2859 17.5995 32C17.5995 32.459 17.6235 32.9001 17.6655 33.3561L5.98346 36.5C5.07245 31.2229 5.78486 25.7935 8.02646 20.93ZM7.22546 41.1231L18.9255 37.9911C19.9037 40.1233 21.387 41.985 23.2469 43.4147C25.1069 44.8444 27.2873 45.7991 29.5995 46.1961V58.2891C24.6309 57.8285 19.8939 55.9725 15.935 52.9351C11.9762 49.8977 8.95682 45.8029 7.22546 41.1231ZM34.3995 58.2891V46.1961C37.7535 45.6275 40.798 43.8899 42.9933 41.2912C45.1886 38.6925 46.393 35.4004 46.393 31.9986C46.393 28.5967 45.1886 25.3046 42.9933 22.7059C40.798 20.1072 37.7535 18.3696 34.3995 17.801V5.70805C40.958 6.30727 47.0558 9.33624 51.4958 14.2004C55.9359 19.0646 58.3975 25.4127 58.3975 31.9986C58.3975 38.5844 55.9359 44.9325 51.4958 49.7967C47.0558 54.6609 40.958 57.6898 34.3995 58.2891Z" fill="#121212"/>
</g>
<defs>
<clipPath id="clip0_103_954">
<rect width="64" height="64" fill="white"/>
</clipPath>
</defs>
</svg>
