<svg width="64" height="64" viewBox="0 0 64 64" fill="none" xmlns="http://www.w3.org/2000/svg">
<path opacity="0.2" d="M32.5005 2.625V31.5L7.49352 45.9375C4.95919 41.5479 3.62498 36.5685 3.625 31.4999C3.62502 26.4312 4.95927 21.4519 7.49363 17.0623C10.028 12.6727 13.6732 9.02762 18.0628 6.49334C22.4524 3.95906 27.4318 2.62492 32.5005 2.625Z" fill="black"/>
<path d="M32.5 0.21875C26.3132 0.21875 20.2653 2.05336 15.1211 5.49059C9.97691 8.92782 5.96751 13.8133 3.59991 19.5292C1.2323 25.2451 0.612831 31.5347 1.81982 37.6027C3.02682 43.6706 6.00607 49.2444 10.3808 53.6192C14.7556 57.9939 20.3294 60.9732 26.3973 62.1802C32.4653 63.3872 38.7549 62.7677 44.4708 60.4001C50.1867 58.0325 55.0722 54.0231 58.5094 48.8789C61.9467 43.7348 63.7813 37.6868 63.7813 31.5C63.7725 23.2064 60.474 15.255 54.6095 9.39049C48.745 3.52601 40.7936 0.227508 32.5 0.21875ZM54.1172 16.2414L34.9063 27.3312V5.14254C38.7208 5.49226 42.414 6.66574 45.7307 8.58196C49.0475 10.4982 51.9088 13.1115 54.1172 16.2414ZM30.0938 5.14254V30.1074L8.4706 42.5898C6.69551 38.7423 5.87004 34.5249 6.0636 30.2922C6.25715 26.0594 7.46407 21.9349 9.5829 18.2655C11.7017 14.5961 14.6705 11.489 18.2397 9.20542C21.8089 6.92183 25.8742 5.52849 30.0938 5.14254ZM32.5 57.9688C28.2626 57.967 24.0875 56.9479 20.3258 54.9972C16.564 53.0465 13.3257 50.2211 10.8829 46.7586L56.5294 20.4072C58.3909 24.4399 59.2076 28.8762 58.9042 33.3075C58.6009 37.7387 57.1874 42.0224 54.7938 45.7639C52.4003 49.5054 49.1037 52.5844 45.2077 54.7172C41.3117 56.8501 36.9416 57.9683 32.5 57.9688Z" fill="#121212"/>
</svg>
