<svg width="64" height="65" viewBox="0 0 64 65" fill="none" xmlns="http://www.w3.org/2000/svg">
<g clip-path="url(#clip0_103_957)">
<path opacity="0.2" d="M49.2306 32.5C49.2306 35.8959 48.22 39.2155 46.3267 42.039C44.4333 44.8626 41.7423 47.0633 38.5937 48.3629C35.4452 49.6624 31.9807 50.0024 28.6383 49.3399C25.2958 48.6774 22.2256 47.0421 19.8158 44.6409C17.4061 42.2397 15.765 39.1803 15.1001 35.8497C14.4353 32.5191 14.7765 29.0668 16.0807 25.9294C17.3848 22.792 19.5933 20.1105 22.4269 18.2238C25.2605 16.3372 28.5919 15.3302 31.9998 15.3302C36.5697 15.3302 40.9524 17.1392 44.1838 20.3591C47.4152 23.5791 49.2306 27.9463 49.2306 32.5Z" fill="#121212"/>
<path d="M32 0.613159C25.671 0.613159 19.4841 2.48329 14.2218 5.98705C8.95939 9.49082 4.85787 14.4709 2.43587 20.2974C0.0138651 26.124 -0.619842 32.5353 0.614886 38.7208C1.84961 44.9062 4.89732 50.5879 9.3726 55.0473C13.8479 59.5068 19.5497 62.5437 25.7571 63.774C31.9645 65.0044 38.3986 64.3729 44.2459 61.9595C50.0931 59.5461 55.0908 55.4591 58.607 50.2153C62.1232 44.9715 64 38.8066 64 32.5C63.9911 24.0458 60.6168 15.9404 54.6175 9.96244C48.6183 3.98444 40.4842 0.622087 32 0.613159ZM58.9631 30.0471H51.5323C50.9798 25.728 49.0036 21.7141 45.9139 18.6353C42.8242 15.5565 38.796 13.5873 34.4616 13.0367V5.63226C40.7628 6.21359 46.6615 8.9726 51.1362 13.4315C55.6109 17.8903 58.3797 23.7682 58.9631 30.0471ZM29.5385 30.0471H17.44C17.9553 27.0365 19.3961 24.2597 21.5633 22.1002C23.7305 19.9406 26.5172 18.5049 29.5385 17.9915V30.0471ZM29.5385 34.9528V47.0084C26.5172 46.495 23.7305 45.0593 21.5633 42.8997C19.3961 40.7402 17.9553 37.9634 17.44 34.9528H29.5385ZM34.4616 34.9528H46.56C46.0447 37.9634 44.6039 40.7402 42.4367 42.8997C40.2695 45.0593 37.4828 46.495 34.4616 47.0084V34.9528ZM34.4616 30.0471V17.9915C37.4828 18.5049 40.2695 19.9406 42.4367 22.1002C44.6039 24.2597 46.0447 27.0365 46.56 30.0471H34.4616ZM29.5385 5.63226V13.0367C25.2041 13.5873 21.1758 15.5565 18.0861 18.6353C14.9965 21.7141 13.0202 25.728 12.4677 30.0471H5.03694C5.62033 23.7682 8.38913 17.8903 12.8638 13.4315C17.3385 8.9726 23.2373 6.21359 29.5385 5.63226ZM5.03694 34.9528H12.4677C13.0202 39.2719 14.9965 43.2858 18.0861 46.3646C21.1758 49.4434 25.2041 51.4126 29.5385 51.9632V59.3676C23.2373 58.7863 17.3385 56.0273 12.8638 51.5684C8.38913 47.1096 5.62033 41.2317 5.03694 34.9528ZM34.4616 59.3676V51.9632C38.796 51.4126 42.8242 49.4434 45.9139 46.3646C49.0036 43.2858 50.9798 39.2719 51.5323 34.9528H58.9631C58.3797 41.2317 55.6109 47.1096 51.1362 51.5684C46.6615 56.0273 40.7628 58.7863 34.4616 59.3676Z" fill="#121212"/>
</g>
<defs>
<clipPath id="clip0_103_957">
<rect width="64" height="65" fill="white"/>
</clipPath>
</defs>
</svg>
