<svg width="64" height="45" viewBox="0 0 64 45" fill="none" xmlns="http://www.w3.org/2000/svg">
<g clip-path="url(#clip0_103_951)">
<path opacity="0.2" d="M20 34.9122C20 36.5083 19.5308 38.0686 18.6518 39.3958C17.7727 40.7229 16.5233 41.7573 15.0615 42.3681C13.5997 42.9789 11.9911 43.1387 10.4393 42.8273C8.88743 42.5159 7.46197 41.7473 6.34315 40.6187C5.22433 39.4901 4.4624 38.0521 4.15372 36.4866C3.84504 34.9212 4.00347 33.2985 4.60897 31.8239C5.21447 30.3493 6.23985 29.0889 7.55544 28.2021C8.87103 27.3153 10.4178 26.842 12 26.842C14.1217 26.842 16.1566 27.6923 17.6569 29.2057C19.1571 30.7192 20 32.7719 20 34.9122Z" fill="#121212"/>
<path d="M61.4153 9.27434L53.4153 1.20417C53.04 0.825595 52.531 0.612915 52.0003 0.612915C51.4695 0.612915 50.9605 0.825595 50.5853 1.20417C50.21 1.58274 49.9991 2.0962 49.9991 2.63158C49.9991 3.16696 50.21 3.68042 50.5853 4.05899L55.1728 8.68421H52.0003C39.6678 8.68421 36.7378 15.7759 34.1553 22.0303C31.8103 27.7071 29.9253 32.2668 21.7853 32.8342C21.2745 30.388 19.8814 28.2203 17.8763 26.7513C15.8712 25.2822 13.3967 24.6166 10.9327 24.8834C8.46873 25.1502 6.19071 26.3305 4.54031 28.1953C2.88991 30.0601 1.98471 32.4767 2.0002 34.9766C2.01568 37.4764 2.95076 39.8814 4.62414 41.7253C6.29752 43.5692 8.58998 44.7206 11.0571 44.9563C13.5242 45.192 15.9902 44.4952 17.977 43.0011C19.9638 41.5069 21.3298 39.3218 21.8103 36.8693C32.6253 36.201 35.3953 29.5179 37.8453 23.5813C40.3528 17.511 42.3328 12.7193 52.0003 12.7193H55.1728L50.5853 17.3445C50.21 17.7231 49.9991 18.2365 49.9991 18.7719C49.9991 19.3073 50.21 19.8208 50.5853 20.1993C50.9605 20.5779 51.4695 20.7906 52.0003 20.7906C52.531 20.7906 53.04 20.5779 53.4153 20.1993L61.4153 12.1292C61.6012 11.9418 61.7487 11.7193 61.8494 11.4744C61.95 11.2294 62.0018 10.9669 62.0018 10.7018C62.0018 10.4366 61.95 10.1741 61.8494 9.92916C61.7487 9.68423 61.6012 9.46172 61.4153 9.27434ZM12.0003 40.9649C10.8136 40.9649 9.65353 40.6099 8.66684 39.9449C7.68014 39.2798 6.91111 38.3345 6.45698 37.2285C6.00286 36.1225 5.88404 34.9056 6.11555 33.7315C6.34706 32.5574 6.9185 31.4789 7.75762 30.6324C8.59673 29.7859 9.66583 29.2095 10.8297 28.9759C11.9936 28.7424 13.2 28.8623 14.2964 29.3204C15.3927 29.7785 16.3298 30.5543 16.9891 31.5496C17.6484 32.545 18.0003 33.7152 18.0003 34.9123C18.0003 36.5175 17.3681 38.057 16.2429 39.1921C15.1177 40.3272 13.5916 40.9649 12.0003 40.9649Z" fill="#121212"/>
</g>
<defs>
<clipPath id="clip0_103_951">
<rect width="64" height="45" fill="white"/>
</clipPath>
</defs>
</svg>
