<svg width="64" height="56" viewBox="0 0 64 56" fill="none" xmlns="http://www.w3.org/2000/svg">
<path opacity="0.2" d="M56.7548 2.43481V53.5653H39.8491V2.43481H56.7548Z" fill="#121212"/>
<path d="M61.5849 51.1304H59.1698V2.43478C59.1698 1.78904 58.9153 1.16974 58.4624 0.713132C58.0095 0.256521 57.3952 0 56.7547 0H39.849C39.2085 0 38.5942 0.256521 38.1413 0.713132C37.6884 1.16974 37.4339 1.78904 37.4339 2.43478V14.6087H22.9434C22.3028 14.6087 21.6886 14.8652 21.2356 15.3218C20.7827 15.7784 20.5283 16.3977 20.5283 17.0435V29.2174H8.4528C7.81228 29.2174 7.19799 29.4739 6.74507 29.9305C6.29216 30.3871 6.03771 31.0064 6.03771 31.6522V51.1304H3.62261C2.98209 51.1304 2.3678 51.387 1.91488 51.8436C1.46197 52.3002 1.20752 52.9195 1.20752 53.5652C1.20752 54.211 1.46197 54.8303 1.91488 55.2869C2.3678 55.7435 2.98209 56 3.62261 56H61.5849C62.2254 56 62.8397 55.7435 63.2926 55.2869C63.7455 54.8303 64 54.211 64 53.5652C64 52.9195 63.7455 52.3002 63.2926 51.8436C62.8397 51.387 62.2254 51.1304 61.5849 51.1304ZM42.2641 4.86957H54.3396V51.1304H42.2641V4.86957ZM25.3585 19.4783H37.4339V51.1304H25.3585V19.4783ZM10.8679 34.087H20.5283V51.1304H10.8679V34.087Z" fill="#121212"/>
</svg>
