<svg width="644" height="451" viewBox="0 0 644 451" fill="none" xmlns="http://www.w3.org/2000/svg">
<path d="M544.706 2.33594C576.913 -2.16169 608.528 1.60736 638.632 13.6006L638.635 13.6025L641.165 14.5898L641.584 14.7539L641.791 14.3535L643.055 11.9053C643.555 10.9636 644.021 10.019 644.453 9.04102H652.312L651.852 113.59L644.601 113.934C638.549 89.1832 631.238 64.8693 618.506 46.71C605.679 28.4167 587.352 16.3731 559.35 16.373H558.16C553.118 16.4594 548.28 16.9344 543.691 17.8867C528.704 20.8243 515.445 28.4374 503.457 41.0078C507.111 21.2468 522.723 5.86082 543.677 2.49121L544.706 2.33594Z" stroke="#121212" stroke-opacity="0.4"/>
<path d="M122.771 9.03809L265.599 342.707L266.046 343.754L266.514 342.716L387.423 74.0693V74.0674L416.464 9.08105H491.121C484.538 17.4621 476.243 29.647 470.591 43.7588C464.754 58.3313 461.718 74.9947 466.331 91.6494C469.562 103.342 475.729 112.045 483.436 123.027C500.058 146.683 530.053 168.285 531.407 169.233L531.427 169.247L531.448 169.26C531.454 169.264 531.485 169.283 531.555 169.328C531.63 169.377 531.737 169.448 531.875 169.539C532.151 169.72 532.547 169.981 533.05 170.313C534.056 170.978 535.492 171.927 537.257 173.091C540.787 175.418 545.635 178.605 550.998 182.096C561.667 189.039 574.385 197.189 582.828 202.163L582.871 202.251L583.001 202.327C649.627 241.2 679.21 281.095 679.21 331.645C679.21 400.492 626.593 450.5 554.038 450.5C537.456 450.5 511.283 444.81 475.48 433.387C465.22 429.86 455.762 427.866 449.528 427.866C443.802 427.866 439.293 429.152 435.674 432.124C432.13 435.034 429.498 439.515 427.375 445.818H420.392V302.596H426.88C432.179 338.758 437.81 355.45 451.134 375.511V375.512C473.05 408.96 507.345 428.994 542.908 428.994C587.342 428.994 622.201 395.895 622.201 353.549C622.201 331.658 614.286 314.704 595.171 295.227C584.172 282.86 569.042 270.591 552.483 260.607L552.479 260.605L501.51 230.627L501.508 230.625L499.577 229.495C459.307 205.767 435.598 182.323 424.951 155.711V155.71L422.295 149.096L421.855 148.002L421.374 149.078L288.668 445.775H282.784L122.463 78.5596L121.505 78.7598V380.134C121.505 402.051 124.418 416.778 131.985 426.188C139.575 435.627 151.745 439.6 169.919 440.289L178.966 440.778V445.775H0.5V440.824L11.4912 440.29L11.4902 440.289C29.7039 439.6 41.8936 435.615 49.4932 426.172C57.0709 416.756 59.9844 402.03 59.9844 380.134V74.6367C59.9844 52.7411 57.081 38.0257 49.5137 28.6152C41.9241 19.1771 29.744 15.1909 11.5283 14.4805H11.5273L0.541992 13.9863V9.03809H122.771Z" stroke="#121212" stroke-opacity="0.4"/>
</svg>
